<?xml version="1.0" standalone="no"?>
<!DOCTYPE svg PUBLIC "-//W3C//DTD SVG 20010904//EN"
 "http://www.w3.org/TR/2001/REC-SVG-20010904/DTD/svg10.dtd">
<svg version="1.0" xmlns="http://www.w3.org/2000/svg"
 width="180.000000pt" height="180.000000pt" viewBox="0 0 180.000000 180.000000"
 preserveAspectRatio="xMidYMid meet">
<metadata>
Created by potrace 1.14, written by Peter Selinger 2001-2017
</metadata>
<g transform="translate(0.000000,180.000000) scale(0.100000,-0.100000)"
fill="#000000" stroke="none">
<path d="M1510 1668 c0 -5 -4 -7 -8 -4 -5 3 -44 -4 -88 -15 -43 -11 -86 -21
-94 -22 -8 -1 -17 -5 -20 -8 -3 -3 -45 -26 -93 -52 -148 -78 -274 -177 -398
-313 -19 -21 -48 -48 -63 -59 -16 -11 -33 -25 -40 -30 -70 -64 -140 -85 -263
-80 -51 2 -93 1 -93 -3 0 -4 -21 -30 -46 -57 -90 -96 -244 -321 -244 -355 0
-7 22 -8 58 -4 61 8 82 8 182 5 36 -2 70 -2 76 -2 6 1 27 27 47 59 l36 58 58
-1 c32 0 57 -4 56 -8 -2 -4 -3 -14 -3 -22 0 -12 -4 -14 -16 -7 -24 13 -87 -47
-82 -79 2 -17 -7 -29 -42 -51 -25 -15 -52 -31 -60 -34 -24 -11 -60 -46 -60
-59 0 -6 -11 -21 -25 -33 -14 -12 -25 -27 -25 -34 0 -6 -11 -24 -25 -38 -15
-16 -26 -40 -27 -63 -2 -25 -9 -39 -21 -43 -20 -6 -41 -41 -28 -48 9 -6 7 -48
-4 -66 -4 -6 -8 -25 -11 -43 -2 -18 -6 -45 -10 -61 l-7 -30 28 22 c21 16 41
22 81 22 40 0 59 5 74 20 11 11 31 22 45 26 14 3 28 10 31 15 3 5 15 9 28 9
36 0 106 39 116 65 5 13 18 26 29 30 12 3 26 15 32 27 6 11 20 32 32 46 31 39
190 192 195 188 2 -2 5 -18 7 -35 5 -35 -7 -50 -68 -86 l-42 -24 1 -153 c1
-84 2 -154 3 -156 1 -2 59 28 101 53 22 13 139 97 153 111 7 5 39 34 72 64
l60 54 1 96 c1 56 7 107 15 125 22 49 72 112 102 130 15 9 35 25 45 35 9 10
23 20 31 22 21 5 172 167 232 249 30 41 67 99 83 129 16 30 35 60 42 66 8 6
14 16 14 23 0 6 9 39 21 74 27 79 48 202 44 249 -8 83 -47 112 -152 114 -40 1
-73 -3 -73 -8z"/>
<path d="M187 454 c-14 -14 -7 -35 11 -32 9 2 17 10 17 17 0 16 -18 25 -28 15z"/>
<path d="M170 370 c0 -5 5 -10 10 -10 6 0 10 5 10 10 0 6 -4 10 -10 10 -5 0
-10 -4 -10 -10z"/>
<path d="M405 150 c-8 -13 4 -32 16 -25 12 8 12 35 0 35 -6 0 -13 -4 -16 -10z"/>
</g>
</svg>
